<?xml version="1.0" encoding="UTF-8"?>
<svg id="Layer_2" data-name="Layer 2" xmlns="http://www.w3.org/2000/svg" viewBox="0 0 1222.6 631.73">
  <g id="Layer_1-2" data-name="Layer 1">
    <g>
      <path d="M268.28,.11l-13.03,79.72h-59.02L108.08,631.73H0L86.62,79.83H27.59L40.63,.11h227.66Z"/>
      <path d="M265.99,522.88l-18.4,108.85h-78.95l17.63-108.85h79.72Z"/>
      <path d="M515.1,.11c61.32,0,105.78-3.07,128.78,23,24.53,26.83,14.56,73.59,9.96,105.01l-62.85,389.4c-18.4,116.51-59.02,114.21-160.2,114.21h-113.45L416.99,.11h98.12Zm32.96,101.95c2.3-12.26,3.83-24.53-32.96-24.53l-75.89,471.41c35.26,0,38.33-3.83,41.39-19.16l67.45-427.72Z"/>
      <path d="M920.59,.11l-13.03,80.48h-69.75l-26.06,163.27h69.75l-14.56,88.15h-68.99l-35.26,216.93h69.75l-13.8,82.79h-178.6L741.22,.11h179.37Z"/>
      <path d="M1065.46,.11l-35.26,414.69L1122.95,.11h99.65l-164.8,631.62h-137.21L958.91,.11h106.55Z"/>
    </g>
  </g>
</svg>